<mxfile host="app.diagrams.net" agent="Mozilla/5.0 (Windows NT 10.0; Win64; x64) AppleWebKit/537.36 (KHTML, like Gecko) Chrome/141.0.0.0 Safari/537.36 Edg/141.0.0.0" version="28.2.5">
  <diagram name="Page-1" id="d6CxIYiAAd4W3GQZ14bk">
    <mxGraphModel dx="2402" dy="2137" grid="0" gridSize="10" guides="1" tooltips="1" connect="1" arrows="1" fold="1" page="0" pageScale="1" pageWidth="827" pageHeight="1169" math="0" shadow="0">
      <root>
        <mxCell id="0" />
        <mxCell id="1" parent="0" />
        <mxCell id="9dK-Q4k1d8dMBxd9045r-56" value="&lt;font&gt;listeners&lt;/font&gt;" style="rounded=0;whiteSpace=wrap;html=1;fontFamily=Architects Daughter;fontSource=https%3A%2F%2Ffonts.googleapis.com%2Fcss%3Ffamily%3DArchitects%2BDaughter;fillColor=none;dashed=1;dashPattern=8 8;strokeColor=light-dark(#000000,#ADADAD);verticalAlign=top;fontSize=14;" vertex="1" parent="1">
          <mxGeometry x="1189" y="-831" width="193" height="1248" as="geometry" />
        </mxCell>
        <mxCell id="9dK-Q4k1d8dMBxd9045r-55" value="&lt;font&gt;publishers&lt;/font&gt;" style="rounded=0;whiteSpace=wrap;html=1;fontFamily=Architects Daughter;fontSource=https%3A%2F%2Ffonts.googleapis.com%2Fcss%3Ffamily%3DArchitects%2BDaughter;fillColor=none;dashed=1;dashPattern=8 8;strokeColor=light-dark(#000000,#ADADAD);verticalAlign=top;fontSize=14;" vertex="1" parent="1">
          <mxGeometry x="747" y="-834" width="193" height="1239" as="geometry" />
        </mxCell>
        <mxCell id="9dK-Q4k1d8dMBxd9045r-5" value="box click" style="rounded=1;whiteSpace=wrap;html=1;fontFamily=Architects Daughter;fontSource=https%3A%2F%2Ffonts.googleapis.com%2Fcss%3Ffamily%3DArchitects%2BDaughter;fillColor=#6a00ff;fontColor=#ffffff;strokeColor=#3700CC;fontSize=14;" vertex="1" parent="1">
          <mxGeometry x="-137" y="-198" width="102" height="57" as="geometry" />
        </mxCell>
        <mxCell id="9dK-Q4k1d8dMBxd9045r-6" style="edgeStyle=none;curved=1;rounded=0;orthogonalLoop=1;jettySize=auto;html=1;entryX=0.018;entryY=0.199;entryDx=0;entryDy=0;entryPerimeter=0;fontFamily=Architects Daughter;fontSource=https%3A%2F%2Ffonts.googleapis.com%2Fcss%3Ffamily%3DArchitects%2BDaughter;fontSize=14;startSize=14;endArrow=open;endSize=14;sourcePerimeterSpacing=8;targetPerimeterSpacing=8;" edge="1" parent="1" source="9dK-Q4k1d8dMBxd9045r-5">
          <mxGeometry relative="1" as="geometry">
            <mxPoint x="111.35799999999995" y="-169.60900000000004" as="targetPoint" />
          </mxGeometry>
        </mxCell>
        <mxCell id="9dK-Q4k1d8dMBxd9045r-12" style="edgeStyle=none;curved=1;rounded=0;orthogonalLoop=1;jettySize=auto;html=1;fontFamily=Architects Daughter;fontSource=https%3A%2F%2Ffonts.googleapis.com%2Fcss%3Ffamily%3DArchitects%2BDaughter;fontSize=14;startSize=14;endArrow=open;endSize=14;sourcePerimeterSpacing=8;targetPerimeterSpacing=8;fillColor=#1ba1e2;strokeColor=#006EAF;" edge="1" parent="1" source="9dK-Q4k1d8dMBxd9045r-7" target="9dK-Q4k1d8dMBxd9045r-10">
          <mxGeometry relative="1" as="geometry" />
        </mxCell>
        <mxCell id="9dK-Q4k1d8dMBxd9045r-7" value="active player (symbol)" style="rounded=1;whiteSpace=wrap;html=1;fontFamily=Architects Daughter;fontSource=https%3A%2F%2Ffonts.googleapis.com%2Fcss%3Ffamily%3DArchitects%2BDaughter;fillColor=#1ba1e2;fontColor=#ffffff;strokeColor=#006EAF;fontSize=14;" vertex="1" parent="1">
          <mxGeometry x="525" y="-304" width="102" height="57" as="geometry" />
        </mxCell>
        <mxCell id="9dK-Q4k1d8dMBxd9045r-11" style="edgeStyle=none;curved=1;rounded=0;orthogonalLoop=1;jettySize=auto;html=1;fontFamily=Architects Daughter;fontSource=https%3A%2F%2Ffonts.googleapis.com%2Fcss%3Ffamily%3DArchitects%2BDaughter;fontSize=14;startSize=14;endArrow=open;endSize=14;sourcePerimeterSpacing=8;targetPerimeterSpacing=8;fillColor=#1ba1e2;strokeColor=#006EAF;" edge="1" parent="1" source="9dK-Q4k1d8dMBxd9045r-8" target="9dK-Q4k1d8dMBxd9045r-10">
          <mxGeometry relative="1" as="geometry" />
        </mxCell>
        <mxCell id="9dK-Q4k1d8dMBxd9045r-8" value="position" style="rounded=1;whiteSpace=wrap;html=1;fontFamily=Architects Daughter;fontSource=https%3A%2F%2Ffonts.googleapis.com%2Fcss%3Ffamily%3DArchitects%2BDaughter;fillColor=#1ba1e2;fontColor=#ffffff;strokeColor=#006EAF;fontSize=14;" vertex="1" parent="1">
          <mxGeometry x="342" y="-200" width="102" height="57" as="geometry" />
        </mxCell>
        <mxCell id="9dK-Q4k1d8dMBxd9045r-9" value="" style="edgeStyle=none;orthogonalLoop=1;jettySize=auto;html=1;rounded=0;fontFamily=Architects Daughter;fontSource=https%3A%2F%2Ffonts.googleapis.com%2Fcss%3Ffamily%3DArchitects%2BDaughter;fontSize=14;startSize=14;endArrow=open;endSize=14;sourcePerimeterSpacing=8;targetPerimeterSpacing=8;curved=1;" edge="1" parent="1">
          <mxGeometry width="140" relative="1" as="geometry">
            <mxPoint x="241" y="-176" as="sourcePoint" />
            <mxPoint x="335" y="-172" as="targetPoint" />
            <Array as="points" />
          </mxGeometry>
        </mxCell>
        <mxCell id="9dK-Q4k1d8dMBxd9045r-10" value="board.placeSymbol" style="rounded=1;whiteSpace=wrap;html=1;fontFamily=Architects Daughter;fontSource=https%3A%2F%2Ffonts.googleapis.com%2Fcss%3Ffamily%3DArchitects%2BDaughter;fillColor=#1ba1e2;fontColor=#ffffff;strokeColor=#006EAF;fontSize=14;" vertex="1" parent="1">
          <mxGeometry x="501" y="-141" width="162" height="57" as="geometry" />
        </mxCell>
        <mxCell id="9dK-Q4k1d8dMBxd9045r-13" value="symbol" style="rounded=1;whiteSpace=wrap;html=1;fontFamily=Architects Daughter;fontSource=https%3A%2F%2Ffonts.googleapis.com%2Fcss%3Ffamily%3DArchitects%2BDaughter;fillColor=#1ba1e2;fontColor=#ffffff;strokeColor=#006EAF;fontSize=14;" vertex="1" parent="1">
          <mxGeometry x="349" y="-102" width="102" height="57" as="geometry" />
        </mxCell>
        <mxCell id="9dK-Q4k1d8dMBxd9045r-14" value="" style="edgeStyle=none;orthogonalLoop=1;jettySize=auto;html=1;rounded=0;fontFamily=Architects Daughter;fontSource=https%3A%2F%2Ffonts.googleapis.com%2Fcss%3Ffamily%3DArchitects%2BDaughter;fontSize=14;startSize=14;endArrow=open;endSize=14;sourcePerimeterSpacing=8;targetPerimeterSpacing=8;curved=1;entryX=1.008;entryY=0.548;entryDx=0;entryDy=0;entryPerimeter=0;" edge="1" parent="1">
          <mxGeometry width="140" relative="1" as="geometry">
            <mxPoint x="350" y="-74" as="sourcePoint" />
            <mxPoint x="241.04799999999977" y="-73.86799999999994" as="targetPoint" />
            <Array as="points" />
          </mxGeometry>
        </mxCell>
        <mxCell id="9dK-Q4k1d8dMBxd9045r-15" value="box filled with symbol" style="rounded=1;whiteSpace=wrap;html=1;fontFamily=Architects Daughter;fontSource=https%3A%2F%2Ffonts.googleapis.com%2Fcss%3Ffamily%3DArchitects%2BDaughter;fillColor=#6a00ff;fontColor=#ffffff;strokeColor=#3700CC;fontSize=14;" vertex="1" parent="1">
          <mxGeometry x="-137" y="-102" width="102" height="57" as="geometry" />
        </mxCell>
        <mxCell id="9dK-Q4k1d8dMBxd9045r-16" value="" style="edgeStyle=none;orthogonalLoop=1;jettySize=auto;html=1;rounded=0;fontFamily=Architects Daughter;fontSource=https%3A%2F%2Ffonts.googleapis.com%2Fcss%3Ffamily%3DArchitects%2BDaughter;fontSize=14;startSize=14;endArrow=open;endSize=14;sourcePerimeterSpacing=8;targetPerimeterSpacing=8;curved=1;entryX=1;entryY=0.5;entryDx=0;entryDy=0;" edge="1" parent="1" target="9dK-Q4k1d8dMBxd9045r-15">
          <mxGeometry width="140" relative="1" as="geometry">
            <mxPoint x="109" y="-71" as="sourcePoint" />
            <mxPoint y="-71" as="targetPoint" />
            <Array as="points" />
          </mxGeometry>
        </mxCell>
        <mxCell id="9dK-Q4k1d8dMBxd9045r-17" value="BoxControl" style="rounded=0;whiteSpace=wrap;html=1;fontFamily=Architects Daughter;fontSource=https%3A%2F%2Ffonts.googleapis.com%2Fcss%3Ffamily%3DArchitects%2BDaughter;fillColor=#008a00;fontColor=#ffffff;strokeColor=#005700;fontSize=14;" vertex="1" parent="1">
          <mxGeometry x="981" y="-470" width="160" height="80" as="geometry" />
        </mxCell>
        <mxCell id="9dK-Q4k1d8dMBxd9045r-20" style="edgeStyle=none;curved=1;rounded=0;orthogonalLoop=1;jettySize=auto;html=1;fontFamily=Architects Daughter;fontSource=https%3A%2F%2Ffonts.googleapis.com%2Fcss%3Ffamily%3DArchitects%2BDaughter;fontSize=14;startSize=14;endArrow=open;endSize=14;sourcePerimeterSpacing=8;targetPerimeterSpacing=8;" edge="1" parent="1" source="9dK-Q4k1d8dMBxd9045r-18" target="9dK-Q4k1d8dMBxd9045r-19">
          <mxGeometry relative="1" as="geometry" />
        </mxCell>
        <mxCell id="9dK-Q4k1d8dMBxd9045r-18" value="box.click" style="rounded=0;whiteSpace=wrap;html=1;fontFamily=Architects Daughter;fontSource=https%3A%2F%2Ffonts.googleapis.com%2Fcss%3Ffamily%3DArchitects%2BDaughter;fillColor=#6a00ff;fontColor=#ffffff;strokeColor=#3700CC;fontSize=14;" vertex="1" parent="1">
          <mxGeometry x="799" y="-329" width="89" height="56" as="geometry" />
        </mxCell>
        <mxCell id="9dK-Q4k1d8dMBxd9045r-24" style="edgeStyle=none;curved=1;rounded=0;orthogonalLoop=1;jettySize=auto;html=1;fontFamily=Architects Daughter;fontSource=https%3A%2F%2Ffonts.googleapis.com%2Fcss%3Ffamily%3DArchitects%2BDaughter;fontSize=14;startSize=14;endArrow=open;endSize=14;sourcePerimeterSpacing=8;targetPerimeterSpacing=8;" edge="1" parent="1" source="9dK-Q4k1d8dMBxd9045r-19" target="9dK-Q4k1d8dMBxd9045r-23">
          <mxGeometry relative="1" as="geometry" />
        </mxCell>
        <mxCell id="9dK-Q4k1d8dMBxd9045r-25" style="edgeStyle=none;curved=1;rounded=0;orthogonalLoop=1;jettySize=auto;html=1;fontFamily=Architects Daughter;fontSource=https%3A%2F%2Ffonts.googleapis.com%2Fcss%3Ffamily%3DArchitects%2BDaughter;fontSize=14;startSize=14;endArrow=open;endSize=14;sourcePerimeterSpacing=8;targetPerimeterSpacing=8;" edge="1" parent="1" source="9dK-Q4k1d8dMBxd9045r-19" target="9dK-Q4k1d8dMBxd9045r-22">
          <mxGeometry relative="1" as="geometry" />
        </mxCell>
        <mxCell id="9dK-Q4k1d8dMBxd9045r-19" value="placedSymbolEvent" style="ellipse;whiteSpace=wrap;html=1;fontFamily=Architects Daughter;fontSource=https%3A%2F%2Ffonts.googleapis.com%2Fcss%3Ffamily%3DArchitects%2BDaughter;fillColor=#60a917;fontColor=#ffffff;strokeColor=#2D7600;fontSize=14;" vertex="1" parent="1">
          <mxGeometry x="986" y="-351" width="160" height="100" as="geometry" />
        </mxCell>
        <mxCell id="9dK-Q4k1d8dMBxd9045r-22" value="send symbol" style="rounded=0;whiteSpace=wrap;html=1;fontFamily=Architects Daughter;fontSource=https%3A%2F%2Ffonts.googleapis.com%2Fcss%3Ffamily%3DArchitects%2BDaughter;fillColor=#6a00ff;fontColor=#ffffff;strokeColor=#3700CC;fontSize=14;" vertex="1" parent="1">
          <mxGeometry x="1241" y="-379" width="89" height="56" as="geometry" />
        </mxCell>
        <mxCell id="9dK-Q4k1d8dMBxd9045r-23" value="change internal board" style="rounded=0;whiteSpace=wrap;html=1;fontFamily=Architects Daughter;fontSource=https%3A%2F%2Ffonts.googleapis.com%2Fcss%3Ffamily%3DArchitects%2BDaughter;fillColor=#1ba1e2;fontColor=#ffffff;strokeColor=#006EAF;fontSize=14;" vertex="1" parent="1">
          <mxGeometry x="1244" y="-287" width="89" height="56" as="geometry" />
        </mxCell>
        <mxCell id="9dK-Q4k1d8dMBxd9045r-31" style="edgeStyle=none;curved=1;rounded=0;orthogonalLoop=1;jettySize=auto;html=1;fontFamily=Architects Daughter;fontSource=https%3A%2F%2Ffonts.googleapis.com%2Fcss%3Ffamily%3DArchitects%2BDaughter;fontSize=14;startSize=14;endArrow=open;endSize=14;sourcePerimeterSpacing=8;targetPerimeterSpacing=8;" edge="1" parent="1" source="9dK-Q4k1d8dMBxd9045r-30">
          <mxGeometry relative="1" as="geometry">
            <mxPoint x="250.00006103515625" y="255.5" as="targetPoint" />
          </mxGeometry>
        </mxCell>
        <mxCell id="9dK-Q4k1d8dMBxd9045r-30" value="active player change" style="rounded=1;whiteSpace=wrap;html=1;fontFamily=Architects Daughter;fontSource=https%3A%2F%2Ffonts.googleapis.com%2Fcss%3Ffamily%3DArchitects%2BDaughter;fillColor=#1ba1e2;fontColor=#ffffff;strokeColor=#006EAF;fontSize=14;" vertex="1" parent="1">
          <mxGeometry x="351.5" y="227" width="102" height="57" as="geometry" />
        </mxCell>
        <mxCell id="9dK-Q4k1d8dMBxd9045r-32" value="change player pane appearances" style="rounded=1;whiteSpace=wrap;html=1;fontFamily=Architects Daughter;fontSource=https%3A%2F%2Ffonts.googleapis.com%2Fcss%3Ffamily%3DArchitects%2BDaughter;fillColor=#6a00ff;fontColor=#ffffff;strokeColor=#3700CC;fontSize=14;" vertex="1" parent="1">
          <mxGeometry x="-138" y="227" width="102" height="57" as="geometry" />
        </mxCell>
        <mxCell id="9dK-Q4k1d8dMBxd9045r-33" style="edgeStyle=none;curved=1;rounded=0;orthogonalLoop=1;jettySize=auto;html=1;fontFamily=Architects Daughter;fontSource=https%3A%2F%2Ffonts.googleapis.com%2Fcss%3Ffamily%3DArchitects%2BDaughter;fontSize=14;startSize=14;endArrow=open;endSize=14;sourcePerimeterSpacing=8;targetPerimeterSpacing=8;entryX=1;entryY=0.5;entryDx=0;entryDy=0;" edge="1" parent="1" target="9dK-Q4k1d8dMBxd9045r-32">
          <mxGeometry relative="1" as="geometry">
            <mxPoint x="12" y="255" as="targetPoint" />
            <mxPoint x="105.99993896484375" y="255.5" as="sourcePoint" />
          </mxGeometry>
        </mxCell>
        <mxCell id="9dK-Q4k1d8dMBxd9045r-34" value="ActivePlayerChange" style="rounded=0;whiteSpace=wrap;html=1;fontFamily=Architects Daughter;fontSource=https%3A%2F%2Ffonts.googleapis.com%2Fcss%3Ffamily%3DArchitects%2BDaughter;fillColor=#008a00;fontColor=#ffffff;strokeColor=#005700;fontSize=14;" vertex="1" parent="1">
          <mxGeometry x="986" y="44" width="160" height="80" as="geometry" />
        </mxCell>
        <mxCell id="9dK-Q4k1d8dMBxd9045r-35" style="edgeStyle=none;curved=1;rounded=0;orthogonalLoop=1;jettySize=auto;html=1;fontFamily=Architects Daughter;fontSource=https%3A%2F%2Ffonts.googleapis.com%2Fcss%3Ffamily%3DArchitects%2BDaughter;fontSize=14;startSize=14;endArrow=open;endSize=14;sourcePerimeterSpacing=8;targetPerimeterSpacing=8;" edge="1" parent="1" source="9dK-Q4k1d8dMBxd9045r-36" target="9dK-Q4k1d8dMBxd9045r-39">
          <mxGeometry relative="1" as="geometry" />
        </mxCell>
        <mxCell id="9dK-Q4k1d8dMBxd9045r-36" value="acitve player change" style="rounded=0;whiteSpace=wrap;html=1;fontFamily=Architects Daughter;fontSource=https%3A%2F%2Ffonts.googleapis.com%2Fcss%3Ffamily%3DArchitects%2BDaughter;fillColor=#1ba1e2;fontColor=#ffffff;strokeColor=#006EAF;fontSize=14;" vertex="1" parent="1">
          <mxGeometry x="799" y="201" width="89" height="56" as="geometry" />
        </mxCell>
        <mxCell id="9dK-Q4k1d8dMBxd9045r-38" style="edgeStyle=none;curved=1;rounded=0;orthogonalLoop=1;jettySize=auto;html=1;fontFamily=Architects Daughter;fontSource=https%3A%2F%2Ffonts.googleapis.com%2Fcss%3Ffamily%3DArchitects%2BDaughter;fontSize=14;startSize=14;endArrow=open;endSize=14;sourcePerimeterSpacing=8;targetPerimeterSpacing=8;" edge="1" parent="1" source="9dK-Q4k1d8dMBxd9045r-39" target="9dK-Q4k1d8dMBxd9045r-40">
          <mxGeometry relative="1" as="geometry" />
        </mxCell>
        <mxCell id="9dK-Q4k1d8dMBxd9045r-39" value="activePlayerChangeEvent" style="ellipse;whiteSpace=wrap;html=1;fontFamily=Architects Daughter;fontSource=https%3A%2F%2Ffonts.googleapis.com%2Fcss%3Ffamily%3DArchitects%2BDaughter;fillColor=#60a917;fontColor=#ffffff;strokeColor=#2D7600;fontSize=14;" vertex="1" parent="1">
          <mxGeometry x="981" y="179" width="160" height="100" as="geometry" />
        </mxCell>
        <mxCell id="9dK-Q4k1d8dMBxd9045r-40" value="player pane appearance" style="rounded=0;whiteSpace=wrap;html=1;fontFamily=Architects Daughter;fontSource=https%3A%2F%2Ffonts.googleapis.com%2Fcss%3Ffamily%3DArchitects%2BDaughter;fillColor=#6a00ff;fontColor=#ffffff;strokeColor=#3700CC;fontSize=14;" vertex="1" parent="1">
          <mxGeometry x="1241" y="197" width="89" height="56" as="geometry" />
        </mxCell>
        <mxCell id="9dK-Q4k1d8dMBxd9045r-42" value="&lt;font style=&quot;font-size: 40px;&quot;&gt;EVENTBUS&lt;/font&gt;" style="rounded=0;whiteSpace=wrap;html=1;textDirection=vertical-rl;fillColor=#60a917;fontColor=#ffffff;strokeColor=#2D7600;fontSize=14;" vertex="1" parent="1">
          <mxGeometry x="109.5" y="-659" width="131" height="1049" as="geometry" />
        </mxCell>
        <mxCell id="9dK-Q4k1d8dMBxd9045r-43" value="frontend" style="text;html=1;align=center;verticalAlign=middle;resizable=0;points=[];autosize=1;strokeColor=#3700CC;fillColor=#6a00ff;fontSize=14;fontFamily=Architects Daughter;fontSource=https%3A%2F%2Ffonts.googleapis.com%2Fcss%3Ffamily%3DArchitects%2BDaughter;fontColor=#ffffff;" vertex="1" parent="1">
          <mxGeometry x="-125.5" y="-757" width="76" height="29" as="geometry" />
        </mxCell>
        <mxCell id="9dK-Q4k1d8dMBxd9045r-44" value="backend" style="text;html=1;align=center;verticalAlign=middle;resizable=0;points=[];autosize=1;strokeColor=#006EAF;fillColor=#1ba1e2;fontSize=14;fontFamily=Architects Daughter;fontSource=https%3A%2F%2Ffonts.googleapis.com%2Fcss%3Ffamily%3DArchitects%2BDaughter;fontColor=#ffffff;" vertex="1" parent="1">
          <mxGeometry x="362" y="-752" width="72" height="29" as="geometry" />
        </mxCell>
        <mxCell id="9dK-Q4k1d8dMBxd9045r-45" style="edgeStyle=none;curved=1;rounded=0;orthogonalLoop=1;jettySize=auto;html=1;fontFamily=Architects Daughter;fontSource=https%3A%2F%2Ffonts.googleapis.com%2Fcss%3Ffamily%3DArchitects%2BDaughter;fontSize=14;startSize=14;endArrow=none;endSize=14;sourcePerimeterSpacing=8;targetPerimeterSpacing=8;startArrow=open;startFill=0;endFill=0;" edge="1" parent="1" source="9dK-Q4k1d8dMBxd9045r-46">
          <mxGeometry relative="1" as="geometry">
            <mxPoint x="248.50006103515625" y="-545.5" as="targetPoint" />
          </mxGeometry>
        </mxCell>
        <mxCell id="9dK-Q4k1d8dMBxd9045r-46" value="create Player" style="rounded=1;whiteSpace=wrap;html=1;fontFamily=Architects Daughter;fontSource=https%3A%2F%2Ffonts.googleapis.com%2Fcss%3Ffamily%3DArchitects%2BDaughter;fillColor=#1ba1e2;fontColor=#ffffff;strokeColor=#006EAF;fontSize=14;" vertex="1" parent="1">
          <mxGeometry x="350" y="-574" width="102" height="57" as="geometry" />
        </mxCell>
        <mxCell id="9dK-Q4k1d8dMBxd9045r-47" value="name input" style="rounded=1;whiteSpace=wrap;html=1;fontFamily=Architects Daughter;fontSource=https%3A%2F%2Ffonts.googleapis.com%2Fcss%3Ffamily%3DArchitects%2BDaughter;fillColor=#6a00ff;fontColor=#ffffff;strokeColor=#3700CC;fontSize=14;" vertex="1" parent="1">
          <mxGeometry x="-139.5" y="-574" width="102" height="57" as="geometry" />
        </mxCell>
        <mxCell id="9dK-Q4k1d8dMBxd9045r-48" style="edgeStyle=none;curved=1;rounded=0;orthogonalLoop=1;jettySize=auto;html=1;fontFamily=Architects Daughter;fontSource=https%3A%2F%2Ffonts.googleapis.com%2Fcss%3Ffamily%3DArchitects%2BDaughter;fontSize=14;startSize=14;endArrow=none;endSize=14;sourcePerimeterSpacing=8;targetPerimeterSpacing=8;entryX=1;entryY=0.5;entryDx=0;entryDy=0;endFill=0;startArrow=open;startFill=0;" edge="1" parent="1" target="9dK-Q4k1d8dMBxd9045r-47">
          <mxGeometry relative="1" as="geometry">
            <mxPoint x="10.5" y="-546" as="targetPoint" />
            <mxPoint x="104.49993896484375" y="-545.5" as="sourcePoint" />
          </mxGeometry>
        </mxCell>
        <mxCell id="9dK-Q4k1d8dMBxd9045r-49" value="PlayerPane" style="rounded=0;whiteSpace=wrap;html=1;fontFamily=Architects Daughter;fontSource=https%3A%2F%2Ffonts.googleapis.com%2Fcss%3Ffamily%3DArchitects%2BDaughter;fillColor=#008a00;fontColor=#ffffff;strokeColor=#005700;fontSize=14;" vertex="1" parent="1">
          <mxGeometry x="986" y="-761" width="160" height="80" as="geometry" />
        </mxCell>
        <mxCell id="9dK-Q4k1d8dMBxd9045r-50" style="edgeStyle=none;curved=1;rounded=0;orthogonalLoop=1;jettySize=auto;html=1;fontFamily=Architects Daughter;fontSource=https%3A%2F%2Ffonts.googleapis.com%2Fcss%3Ffamily%3DArchitects%2BDaughter;fontSize=14;startSize=14;endArrow=open;endSize=14;sourcePerimeterSpacing=8;targetPerimeterSpacing=8;" edge="1" parent="1" source="9dK-Q4k1d8dMBxd9045r-51" target="9dK-Q4k1d8dMBxd9045r-53">
          <mxGeometry relative="1" as="geometry" />
        </mxCell>
        <mxCell id="9dK-Q4k1d8dMBxd9045r-51" value="name input" style="rounded=0;whiteSpace=wrap;html=1;fontFamily=Architects Daughter;fontSource=https%3A%2F%2Ffonts.googleapis.com%2Fcss%3Ffamily%3DArchitects%2BDaughter;fillColor=#6a00ff;fontColor=#ffffff;strokeColor=#3700CC;fontSize=14;" vertex="1" parent="1">
          <mxGeometry x="799" y="-603" width="89" height="56" as="geometry" />
        </mxCell>
        <mxCell id="9dK-Q4k1d8dMBxd9045r-52" style="edgeStyle=none;curved=1;rounded=0;orthogonalLoop=1;jettySize=auto;html=1;fontFamily=Architects Daughter;fontSource=https%3A%2F%2Ffonts.googleapis.com%2Fcss%3Ffamily%3DArchitects%2BDaughter;fontSize=14;startSize=14;endArrow=open;endSize=14;sourcePerimeterSpacing=8;targetPerimeterSpacing=8;" edge="1" parent="1" source="9dK-Q4k1d8dMBxd9045r-53" target="9dK-Q4k1d8dMBxd9045r-54">
          <mxGeometry relative="1" as="geometry" />
        </mxCell>
        <mxCell id="9dK-Q4k1d8dMBxd9045r-53" value="ProvidedNameEvent" style="ellipse;whiteSpace=wrap;html=1;fontFamily=Architects Daughter;fontSource=https%3A%2F%2Ffonts.googleapis.com%2Fcss%3Ffamily%3DArchitects%2BDaughter;fillColor=#60a917;fontColor=#ffffff;strokeColor=#2D7600;fontSize=14;" vertex="1" parent="1">
          <mxGeometry x="986" y="-622" width="160" height="100" as="geometry" />
        </mxCell>
        <mxCell id="9dK-Q4k1d8dMBxd9045r-54" value="create Player" style="rounded=0;whiteSpace=wrap;html=1;fontFamily=Architects Daughter;fontSource=https%3A%2F%2Ffonts.googleapis.com%2Fcss%3Ffamily%3DArchitects%2BDaughter;fillColor=#1ba1e2;fontColor=#ffffff;strokeColor=#006EAF;fontSize=14;" vertex="1" parent="1">
          <mxGeometry x="1241" y="-600" width="89" height="56" as="geometry" />
        </mxCell>
        <mxCell id="9dK-Q4k1d8dMBxd9045r-57" value="controlClass" style="rounded=0;whiteSpace=wrap;html=1;fontFamily=Architects Daughter;fontSource=https%3A%2F%2Ffonts.googleapis.com%2Fcss%3Ffamily%3DArchitects%2BDaughter;fillColor=#008a00;fontColor=#ffffff;strokeColor=#005700;fontSize=14;" vertex="1" parent="1">
          <mxGeometry x="1549" y="-714" width="160" height="80" as="geometry" />
        </mxCell>
        <mxCell id="9dK-Q4k1d8dMBxd9045r-58" value="Event" style="ellipse;whiteSpace=wrap;html=1;fontFamily=Architects Daughter;fontSource=https%3A%2F%2Ffonts.googleapis.com%2Fcss%3Ffamily%3DArchitects%2BDaughter;fillColor=#60a917;fontColor=#ffffff;strokeColor=#2D7600;fontSize=14;" vertex="1" parent="1">
          <mxGeometry x="1542" y="-589" width="160" height="100" as="geometry" />
        </mxCell>
      </root>
    </mxGraphModel>
  </diagram>
</mxfile>
